# xmcd
#
# Track frame offsets:
#	150
#	15545
#	34556
#	57328
#	72196
#	88103
#	103004
#	122582
#	140645
#
# Disc length: 2258 seconds
# Revision: 0
# Processed by: cddbd v1.5.2PL0 Copyright (c) Steve Scherf et al.
# Submitted via: dBpowerAMP V12.0
#
DISCID=7508d009
DTITLE=Esther Phillips - From A Whisper To A Scream
DYEAR=1971
DGENRE=Soul
TTITLE0=Home Is Where The Hatred Is
TTITLE1=From A Whisper To A Scream
TTITLE2=To Lay Down Beside You
TTITLE3=That's All Right With Me
TTITLE4='Til My Back Ain't Got No Bone
TTITLE5=Sweet Touch Of Love
TTITLE6=Baby, I'm For Real
TTITLE7=Your Love Is So Doggone Good
TTITLE8=Scarred Knees
EXTD=
EXTT0=
EXTT1=
EXTT2=
EXTT3=
EXTT4=
EXTT5=
EXTT6=
EXTT7=
EXTT8=
PLAYORDER=
